<svg width="26" height="21" viewBox="0 0 26 21" fill="none" xmlns="http://www.w3.org/2000/svg">
<path d="M18.7304 15.4442C17.9758 14.6444 17.079 14.0097 16.0914 13.5766C15.1038 13.1436 14.0449 12.9206 12.9755 12.9206C11.9061 12.9206 10.8472 13.1436 9.85966 13.5766C8.87208 14.0097 7.97525 14.6444 7.22065 15.4442L3.9732 12.0164C5.15429 10.7665 6.55741 9.77476 8.10218 9.09811C9.64696 8.42145 11.303 8.07315 12.9755 8.07315C14.648 8.07315 16.3041 8.42145 17.8489 9.09811C19.3937 9.77476 20.7968 10.7665 21.9779 12.0164L18.7304 15.4442ZM9.29387 17.6262L11.3304 19.7823C11.7672 20.2419 12.3588 20.5 12.9755 20.5C13.5923 20.5 14.1839 20.2419 14.6207 19.7823L16.6572 17.6262C15.6813 16.6044 14.3624 16.031 12.9878 16.031C11.6132 16.031 10.2943 16.6044 9.31834 17.6262H9.29387ZM12.8984 5.34836C14.9104 5.34457 16.9928 5.7726 18.8525 6.58347C20.7121 7.39435 22.4019 8.5847 23.8248 10.0863L25.3171 8.51116C25.5506 8.26536 25.7318 7.96993 25.8488 7.64448C25.9658 7.31903 26.0159 6.97103 25.9956 6.6236C25.9754 6.27617 25.8853 5.93726 25.7314 5.6294C25.5775 5.32154 25.3633 5.05178 25.103 4.83805C21.6312 2.0249 17.3768 0.5 13 0.5C8.62321 0.5 4.36879 2.0249 0.896995 4.83805C0.636709 5.05178 0.422499 5.32154 0.268598 5.6294C0.114697 5.93726 0.0246309 6.27617 0.00438432 6.6236C-0.0158623 6.97103 0.0341745 7.31903 0.15117 7.64448C0.268165 7.96993 0.449439 8.26536 0.682945 8.51116L2.17518 10.0863C3.59566 8.5839 5.28296 7.39206 7.14045 6.579C8.99794 5.76594 10.9891 5.34763 13 5.34802" fill="#003F6B"/>
</svg>
